<?xml version="1.0" encoding="UTF-8"?><svg id="_레이어_2" xmlns="http://www.w3.org/2000/svg" viewBox="0 0 1000 192.05"><g id="_레이어_1-2"><g id="Vordergrund"><path d="M72.85,87.94c-17.16,1.28-39.11,4.47-38.93,10.48.19,6.29,16.36,18.37,37.61,26.24.99-12.87,1.23-26.51,1.33-36.71ZM10.02,23.14C4.37,23.31.1,20.84,0,17.39c-.08-2.52,5.45-10.4,8.81-11.68C11.12,4.84,22.33.59,41.02.03c6.93-.21,18.69.64,28.62,2.12,57.82,8.57,118.51,52.66,119.67,91.76.79,26.61-22.19,51.56-67.06,52.9-11.82.35-22.82-1.1-32.82-3.73-.22,6.53.27,9.99-8.99,10.26-5.67.17-7.87-9.01-8.71-16.47-27.08-12.02-43.4-31.54-43.63-39.25-.34-11.47,20.52-21.04,44.92-24.83.34-9.5,1.95-33.69,6.97-33.83,2.01-.06,6.19,4.61,7.76,11.76,1.43,6.5,1.58,18.35,1.6,20.46l1.84-.07c34.24-1.02,54.75,9.69,55.13,22.37.29,9.83-8.41,14.86-12.98,15-4.57.14-9.91-2.46-9.96-3.87-.08-2.71,9.74-3.34,9.61-7.71-.2-6.6-27.42-9.49-44.19-9.59-.03,5.68-.1,12.55.04,17.16.13,4.43.41,15.88.54,25.43,7.61,1.61,15.44,2.48,23.13,2.25,18.08-.54,59.38-7.13,58.46-38.16C169.71,50.62,84,10.8,38.1,12.16c-18.08.54-28.93,2.48-28.88,4.25.03,1.18,8.8,1.64,8.88,3.98.07,2.34-4.98,2.66-8.07,2.75Z" fill="#eee" stroke-width="0"/><path d="M202.41,70.51c2.95-.09,7.19,7,7.32,11.43s1.19,27.58,1.5,34.26c.31,6.67.09,13.06-.34,16.02-.43,2.96-1.51,4.41-6.58,4.57-5.08.15-7.44-2.87-7.87-7.34-.43-4.47-.81-17.15-.59-23.5.22-6.35.52-18.51,1.35-26.12.83-7.61,2.87-9.24,5.21-9.31Z" fill="#eee" fill-rule="evenodd" stroke-width="0"/><path d="M231.79,18.49c-.84-2.1-3.67-6.35-13.75-6.06-21.97.65-38.87,16.93-38.49,29.75.12,4.17,2.14,7.82,5.09,10.81-.77,2.1-.85,3.5-.83,4.3.07,2.23,3.42,8.11,5.99,8.03,2.18-.06,3.67-2.1,5.76-5.4,3.58,1.38,7.15,2.09,9.98,2,20.66-.61,39.4-19.97,39.04-32.36-.17-5.7-3.87-11.21-12.79-11.07ZM200.61,49.26c2.54-3.59,15.73-21.25,29.32-21.65,3.99-.12,5.04,2.35,5.12,5.08.13,4.24-7.57,16.66-24.89,17.17-3.8.11-7-.17-9.56-.6ZM189.86,43.4c-.31-.52-.61-1.35-.65-2.63-.09-2.84,4.82-13.71,17.14-14.6-3.14,2.15-6.32,4.91-9.46,8.44-2.96,3.32-5.31,6.24-7.03,8.79Z" fill="#eee" fill-rule="evenodd" stroke-width="0"/><path d="M256,69.32c12.1-.36,27.25,1.21,27.36,5.08.07,2.26-1.12,6.99-7.57,7.64-7.61.77-46.01,2.4-45.87,7.14.07,2.51,11.61,3.06,22.2,3.7,10.87.66,28.34,1.07,28.86,18.66.41,13.89-4.84,16.83-7.21,17.94-3,1.4-13.1,5.24-20.83,5.47-23.32.69-32.93-12.71-33.13-19.52-.18-6.05,6.04-11.41,16.5-11.72,10.46-.31,26.66,3.46,26.79,7.76.1,3.49-7.04,5.28-10.2,5.38-14.28.42-13.57-5.38-21.8-5.13-4.68.14-11.26,10.1,12.22,9.4,20.92-.62,27.26-7.52,27.15-11.22-.15-4.9-15.16-7.29-23.84-7.74-8.68-.45-21.72-.39-26.16-3.21-4.45-2.81-3.82-9.17-2.28-14.43,3.22-11,25.74-14.83,37.83-15.19Z" fill="#eee" fill-rule="evenodd" stroke-width="0"/><path d="M297.31,73.88c8.17-.24,25.31,36.82,28.19,36.73,2.89-.08.74-8.66-1.08-18.12-4.13-21.42-10.56-32.46-4.52-32.64,4.47-.13,19.12,14.04,19.94,41.5.38,12.75-1.42,29.43-12.97,29.78-10.95.33-23.43-34.26-26.26-34.17-1.52.04-1.65,21.43-2.06,27.87-.41,6.45-2.65,9.89-6.25,10-5.45.16-7.84-5.06-8.15-15.35-.31-10.3,3.07-45.29,13.15-45.59Z" fill="#eee" fill-rule="evenodd" stroke-width="0"/><path d="M380.42,93.93c3.87-.11,7.29-.76,6.94,4.26-.34,5.03-.55,7.05-4.58,7.17l-20.68.61c-.68,2.3-2.45,8.23-3.25,10.73-1,3.14,2.15,2.44,6.2,1.29,4.06-1.16,15.06-3.23,19.58-3.36,4.52-.14,7.9,7.07,5.3,9.55-2.6,2.48-16.59,14.29-31.19,14.72-6.27.19-14.77-5.29-15.06-15.09-.15-5.19,1.93-12.16,3.93-17.57-.49-.31-.86-1.02-1.15-2.58-.65-3.53-2.24-7.4,3.63-8.07.47-.05,1.06-.11,1.75-.16l4.85-9.99c-1.97-.29-3.67-.72-4.98-1.35-3.57-1.7-6.35-6.08-6.4-8.04-.13-4.31,31.42-6.88,38.73-7.09,7.85-.23,10.07,1.28,12.58,4.86,2.51,3.58,3.45,6.11,3.48,7.09.03.98-.88,3.41-10.36,3.69-4.85.14-12.69.96-20.21,1.24l-3.27,8.73c7.32-.36,14.17-.64,14.17-.64Z" fill="#eee" stroke-width="0"/><path d="M401.8,123.76c-8.47,16.71-14.17,34.42-13.78,47.75.45,15.02,9.67,20.62,12.47,20.54,2.8-.09,2.94-4.53,3.45-7.84,2.86-18.76,7.77-35.38,13.38-49.35,2.22.56,4.42.82,6.46.76,17.18-.51,37.09-21.04,36.44-42.89-.34-11.54-4.75-19.72-12.15-19.5-10.82.32-26.37,16.67-38.85,37.2-1.11-8.33,5.45-21.15,11.05-30.11,3.93-6.3,3.24-13.78,1.61-13.73-2.29.07-24.45,18.83-23.69,44.56.15,5,1.45,9.19,3.61,12.62ZM424.72,118.56c10.34-20.22,21.01-31.75,24.76-31.87,6.5-.19,1,29.22-24.76,31.87Z" fill="#eee" fill-rule="evenodd" stroke-width="0"/><path d="M760.65,111.76c-6.26-7.4-11.61-14.18-14.66-17.81-4.16,5.64-14.41,21.72-19.02,30.64,2.88.54,5.75,1.01,8.67,1.3l.82,5.77h-1.96c-1.87,0-11.89-.46-18.61-.46-5.13,0-10.13.27-15.27.67l1.99-5.98c2.6-.38,5.45-.64,7.89-1.57,5.01-3.37,25.15-30.06,30.45-36.85-4.07-5.21-9.55-12.4-14.74-19.08-5.31-6.79-10.26-13.01-12.91-15.89-2.68-.82-5.5-1.18-8.22-1.71l-.85-6.05c6.46,1.08,13.6.87,20,.87,7.35,0,14.75-.27,22.1-.58l-1.72,5.89c-2.88.31-5.75.67-8.61,1.23,3.23,5.2,11.8,17.83,15.54,22.85,3.98-5.4,11.97-16.86,15.44-22.9l-2.07-.42c-1.74-.31-3.46-.58-5.14-.84l-1.15-5.9c6.12.51,12.31.67,18.51.67,4.7,0,9.41-.27,14.11-.67l-.56,5.76c-2.77.72-5.54,1.23-8.36,1.92l-.96.96c-4.1,3.84-7.82,8.15-11.52,12.33-5.42,6.14-10.98,12.61-13.51,15.6,13,17.79,25.73,35.88,39.07,53.35l-9.48,1.87c-9.29-7.02-17.76-16.23-25.3-24.98Z" fill="#eee" fill-rule="evenodd" stroke-width="0"/><path d="M921.18,52.43c-4.09-.6-8.34-.9-12.46-1.24l-.83-5.84,28.4-.12c11.02,0,26.48.12,34.85,3.44,6.69,2.65,11.15,7.61,11.15,14.97,0,7.93-8.32,17.51-17.03,22.85,8.28,14,24.11,35.94,34.73,47.19l-10.11,1.36c-8.43-3.88-34.34-33.25-41.79-42.24-3.23.24-6.56.51-8.77.59v1.38c0,7.06.2,23.15.51,29.73,3.99.66,8.09,1.05,12.13,1.41l1.14,5.99c-7.35-.6-14.95-.67-22.3-.67s-15.5,0-23.08.67l1.12-6.02c4.1-.33,8.3-.69,12.3-1.47.36-5.83.49-26.01.49-37.3v-7.16c0-3.96-.14-22.47-.46-27.49ZM951.31,84.19c4.72-1.74,12.25-6.71,12.25-17.26,0-5.96-5.24-14.42-23.73-14.92-.3,6.78-.5,24.85-.5,32.41v1.87c3.72-.11,7.83-.57,11.98-2.1Z" fill="#eee" fill-rule="evenodd" stroke-width="0"/><path d="M867.94,124.5c-3.56-10.38-6.72-21.23-11.13-31.32-5.18.11-19.53.76-24.74,1.35-1.35,4.25-6.12,21.26-7.58,29.96,3.16.73,6.44,1.02,9.66,1.38l1.13,5.94c-6.96-.42-14.02-.63-20.95-.63-5.23,0-10.47.21-15.65.67l.84-5.99c3.53-.36,6.99-.84,10.47-1.56,4.6-9.06,23.93-61.07,28.1-72.23-2.89-.57-5.77-.87-8.66-1.21l-.24-5.9c5.99.4,12.1.63,18.14.63,7.71,0,15.53-.09,23.17-.63l-.86,5.9c-2.76.32-5.54.64-8.25,1.26,2.08,6.69,7.71,22.87,11.78,33.99,3.19,8.83,10.14,27.73,15.47,38.19,3.58.7,7.13,1.15,10.72,1.62l.88,6.09c-7.06-1.18-15.62-.84-22.63-.84s-14.78.09-22.07.67l1.4-6.02c3.69-.33,7.34-.65,10.99-1.35ZM844.94,57.88c-3.39,9.35-8.13,22.24-10.08,27.9l19.77.36c-2.44-7.29-7.09-20.41-9.69-28.26Z" fill="#eee" fill-rule="evenodd" stroke-width="0"/><path d="M676.05,124.38c4.03.72,8.15,1.09,12.16,1.5l1.43,6.02c-8.3-.79-17.12-.7-25.38-.7-6.82,0-13.69.21-20.43.63l1.14-6.02c4.06-.21,8.21-.78,12.22-1.47.42-6.64.54-26.03.54-36.66v-6.92c0-3.56-.12-22.26-.48-28.33-4.07-.62-8.1-1.08-12.15-1.51l-1.41-6.05c8.31.9,17.34.75,25.59.75,6.72,0,13.7.01,20.42-.76l-1.49,6.07c-4.05.44-8.12,1.11-12.17,1.63-.3,4.11-.43,15.97-.43,28.83v7.23c0,13.94.14,31.02.45,35.78Z" fill="#eee" fill-rule="evenodd" stroke-width="0"/><path d="M591.92,124.32c4.9.64,9.84,1.06,14.71,1.56l1.41,5.94c-8.13-.51-16.47-.63-24.65-.63s-15.72.09-23.49.63l1.12-5.93c4.09-.52,8.2-.87,12.31-1.53.38-7.18.44-29.5.44-39.65v-4.66c0-3.46-.06-21.87-.44-27.74-4.09-.85-8.34-1.03-12.47-1.41l-.84-5.78,29.15-.11c12.79,0,23.92,1.02,30.01,3.51,11.24,4.69,12.57,12.58,12.57,16.02,0,20.46-20.05,29.79-37.51,32.22l.73-6.38c10.58-2.64,18.29-8.54,18.29-21.59,0-6.54-3.22-11.76-8.52-14.39-3.13-1.54-8.12-2.25-12.81-2.4-.34,5.33-.43,19.49-.43,28.38v4.96c0,9.11.09,32.57.45,38.98Z" fill="#eee" fill-rule="evenodd" stroke-width="0"/><circle cx="512.78" cy="91.91" r="8.03" fill="#eee" stroke-width="0"/></g></g></svg>