<svg width="18" height="30" viewBox="0 0 18 30" fill="none" xmlns="http://www.w3.org/2000/svg">
<path d="M17.0771 14.0654L2.68923 0.356522C2.44916 0.127667 2.13021 -6.70853e-07 1.79854 -6.85351e-07C1.46686 -6.99849e-07 1.14792 0.127667 0.907848 0.356522L0.892355 0.372012C0.775571 0.482957 0.682579 0.616499 0.619034 0.764517C0.555488 0.912534 0.522718 1.07193 0.522718 1.23301C0.522718 1.39409 0.555488 1.55349 0.619034 1.70151C0.682579 1.84953 0.775571 1.98307 0.892355 2.09401L14.4412 15.0026L0.892354 27.906C0.77557 28.0169 0.682578 28.1505 0.619033 28.2985C0.555487 28.4465 0.522717 28.6059 0.522717 28.767C0.522717 28.9281 0.555487 29.0875 0.619033 29.2355C0.682578 29.3835 0.77557 29.517 0.892354 29.628L0.907847 29.6435C1.14792 29.8723 1.46686 30 1.79853 30C2.13021 30 2.44916 29.8723 2.68923 29.6435L17.0771 15.9346C17.2036 15.814 17.3044 15.669 17.3732 15.5084C17.442 15.3477 17.4775 15.1748 17.4775 15C17.4775 14.8252 17.442 14.6523 17.3732 14.4916C17.3044 14.331 17.2036 14.186 17.0771 14.0654Z" fill="#111111"/>
</svg>
