<svg width="30" height="14" viewBox="0 0 30 14" fill="none" xmlns="http://www.w3.org/2000/svg">
<path d="M4.34269 3.22981C4.34269 3.22981 3.29637 3.22981 2.34663 4.15451V0.430664H0V10.2107H2.37167V9.44515C2.37167 9.44515 2.9315 10.4557 4.34269 10.4557C4.34269 10.4557 7.65158 10.3341 7.65158 6.80519C7.65158 6.80519 7.52996 3.22802 4.34269 3.22802V3.22981ZM3.82579 8.39167C2.99231 8.39167 2.31622 7.71559 2.31622 6.8821C2.31622 6.04862 2.99231 5.37432 3.82579 5.37432C4.65927 5.37432 5.33357 6.05041 5.33357 6.8821C5.33357 7.7138 4.65749 8.39167 3.82579 8.39167Z" fill="black"/>
<path d="M8.40625 0.212402V2.47497C8.40625 2.47497 9.47761 2.42668 9.47761 4.42095V10.2106H11.7402V3.88616C11.7402 3.88616 11.8368 0.212402 8.40625 0.212402Z" fill="black"/>
<path d="M17.2725 3.26025C17.2725 3.26025 13.393 3.26025 13.393 6.88215C13.393 6.88215 13.2678 10.4557 17.2725 10.4557C17.2725 10.4557 21.2413 10.4504 21.2413 6.88215C21.2413 6.88215 21.3701 3.26025 17.2725 3.26025ZM17.2725 8.39171C16.439 8.39171 15.7629 7.71563 15.7629 6.88215C15.7629 6.04866 16.439 5.37437 17.2725 5.37437C18.1059 5.37437 18.7802 6.05045 18.7802 6.88215C18.7802 7.71384 18.1042 8.39171 17.2725 8.39171Z" fill="black"/>
<path d="M27.7177 3.49832V4.15473C27.7177 4.15473 27.0434 3.26044 25.7484 3.26044C25.7484 3.26044 22.427 3.12093 22.427 6.85729C22.427 6.85729 22.3895 10.3397 25.6572 10.3397C25.6572 10.3397 26.9897 10.3933 27.7177 9.44538V9.99269C27.7177 9.99269 27.8822 11.7079 26.2224 11.7079H25.6572V13.7881H26.5694C26.5694 13.7881 29.9999 13.8256 29.9999 10.1215V3.49832H27.7195H27.7177ZM26.3154 8.3919C25.4819 8.3919 24.8076 7.71581 24.8076 6.88233C24.8076 6.04885 25.4819 5.37455 26.3154 5.37455C27.1489 5.37455 27.8232 6.05064 27.8232 6.88233C27.8232 7.71403 27.1471 8.3919 26.3154 8.3919Z" fill="black"/>
</svg>
