<svg width="28" height="20" viewBox="0 0 28 20" fill="none" xmlns="http://www.w3.org/2000/svg">
<path d="M11.2 14.2002L18.466 10.0002L11.2 5.8002V14.2002ZM27.384 3.2382C27.566 3.8962 27.692 4.77819 27.776 5.89819C27.874 7.01819 27.916 7.98419 27.916 8.82419L28 10.0002C28 13.0662 27.776 15.3202 27.384 16.7622C27.034 18.0222 26.222 18.8342 24.962 19.1842C24.304 19.3662 23.1 19.4922 21.252 19.5762C19.432 19.6742 17.766 19.7162 16.226 19.7162L14 19.8002C8.134 19.8002 4.48 19.5762 3.038 19.1842C1.778 18.8342 0.966 18.0222 0.616 16.7622C0.434 16.1042 0.308 15.2222 0.224 14.1022C0.126 12.9822 0.0839999 12.0162 0.0839999 11.1762L0 10.0002C0 6.9342 0.224 4.6802 0.616 3.2382C0.966 1.9782 1.778 1.1662 3.038 0.816195C3.696 0.634195 4.9 0.508195 6.748 0.424195C8.568 0.326195 10.234 0.284195 11.774 0.284195L14 0.200195C19.866 0.200195 23.52 0.424195 24.962 0.816195C26.222 1.1662 27.034 1.9782 27.384 3.2382Z" fill="black"/>
</svg>
